:SAMPLES-PER-SECOND 30
:FULLY-SPECIFIED
:DEGREES
33
root  75.6278 39.2714 -4.81789 -178.51 -87.7179 176.783
RightUpLeg  2.26889 -11.2122 -4.24388
RightLeg  17.0289 -0.368674 1.59452
RightFoot  -17.3423 -0.0635732 1.02359
RightToes  5.82063e-011 0 -3.6325e-017
Spine  0.146612 -2.22516 7.54052
Spine1  14.7392 -2.21222 0.672162
HEad  4.91456 6.39957 -8.77537
LeftShoulder1  8.65322 -12.1235 -48.3333
LeftArm  -15.535 11.5605 -24.1521
LeftForeArm  18.8563 -18.6049 -3.63859
LeftHand  -0.244104 0.0205437 5.32207
RightShoulder  6.35082 10.1855 40.2412
RightArm  -5.80458 -9.929 22.6918
RightForeArm  -1.16189 6.66255 7.80944
RightHand  -0.672897 0.107566 -14.2931
LeftUpLeg  -14.265 4.78872 4.15075
LeftLeg  39.1118 8.07076 7.35976
LeftFoot  -11.606 0.0604656 -4.0225
LeftToes  3.81955e-011 1.3492e-010 1.36421e-011
34
root  75.0895 39.3292 -4.98325 -148.246 -88.1161 147.217
RightUpLeg  3.14052 -11.0438 -5.14573
RightLeg  15.7665 -1.16712 1.78177
RightFoot  -17.6589 -0.0457514 1.33686
RightToes  5.82063e-011 0 -3.6325e-017
Spine  -0.413295 -1.8534 7.39596
Spine1  15.1218 -1.59274 -0.416846
HEad  4.80111 5.35152 -7.68983
LeftShoulder1  8.60424 -12.1414 -48.0017
LeftArm  -15.1535 11.4614 -25.4186
LeftForeArm  17.7686 -20.9918 -3.79419
LeftHand  -0.244104 0.0205437 5.32207
RightShoulder  6.29986 10.1093 40.1322
RightArm  -7.45645 -9.76734 24.3486
RightForeArm  -1.9359 7.07797 7.50484
RightHand  -0.668706 0.0303495 -14.3453
LeftUpLeg  -17.5793 6.12286 1.72623
LeftLeg  38.2466 7.24781 6.45215
LeftFoot  -11.2909 0.070024 -5.04367
LeftToes  3.81955e-011 1.3492e-010 1.36421e-011
35
root  74.5159 39.379 -5.13867 -116.427 -87.8425 116.125
RightUpLeg  4.09975 -10.9013 -6.04323
RightLeg  14.3518 -1.92729 2.0099
RightFoot  -17.8289 -0.0350023 1.51247
RightToes  5.82063e-011 0 -3.6325e-017
Spine  -0.122838 -1.3365 7.24034
Spine1  14.3632 -0.769935 -1.60537
HEad  4.63516 4.18801 -6.75563
LeftShoulder1  8.62749 -12.2373 -47.8363
LeftArm  -13.6377 11.7273 -26.475
LeftForeArm  18.5004 -23.4469 -4.05785
LeftHand  -0.244104 0.0205437 5.32207
RightShoulder  6.17101 9.85681 40.048
RightArm  -7.70917 -9.89611 26.6752
RightForeArm  -3.079 8.50479 7.58496
RightHand  -0.558261 -0.682739 -13.7508
LeftUpLeg  -20.3394 7.53121 -0.805487
LeftLeg  34.7755 7.91508 6.21368
LeftFoot  -10.6169 0.0967414 -5.31895
LeftToes  3.81955e-011 1.3492e-010 1.36421e-011
36
root  73.8826 39.4005 -5.28089 -97.3937 -87.2359 97.6178
RightUpLeg  5.37302 -10.8026 -6.87172
RightLeg  12.9694 -2.70995 2.27836
RightFoot  -18.0065 -0.0481025 1.26857
RightToes  5.82063e-011 0 -3.6325e-017
Spine  0.538829 -0.864498 6.87879
Spine1  13.5587 -0.0933099 -2.41275
HEad  3.74979 3.56913 -6.14121
LeftShoulder1  8.67982 -12.2788 -48.0023
LeftArm  -12.3193 12.0733 -27.2743
LeftForeArm  21.0238 -25.9007 -4.43373
LeftHand  -0.244104 0.0205437 5.32207
RightShoulder  6.1765 9.80106 40.2694
RightArm  -5.79877 -9.58883 28.8028
RightForeArm  -6.27086 10.7097 7.93429
RightHand  -0.490934 -1.15419 -13.385
LeftUpLeg  -22.5483 8.51542 -3.13767
LeftLeg  29.78 8.09707 5.33517
LeftFoot  -9.41712 0.139688 -4.96515
LeftToes  3.81955e-011 1.3492e-010 1.36421e-011
37
root  73.1755 39.3703 -5.40501 -85.0858 -86.5998 85.7372
RightUpLeg  6.84167 -10.6421 -7.55155
RightLeg  11.6908 -3.56443 2.54051
RightFoot  -18.4758 -0.0559462 1.10582
RightToes  5.82063e-011 0 -3.6325e-017
Spine  1.13001 -0.525382 6.24566
Spine1  13.1021 0.298624 -2.6943
HEad  2.90984 2.47917 -5.95539
LeftShoulder1  8.70779 -12.2038 -48.3905
LeftArm  -11.1389 12.3852 -28.0258
LeftForeArm  24.3943 -27.8484 -4.68445
LeftHand  -0.244104 0.0205437 5.32207
RightShoulder  6.33021 9.9109 40.9914
RightArm  -2.34997 -8.36873 30.3137
RightForeArm  -8.75354 13.3503 7.89231
RightHand  -0.454131 -1.13925 -12.3273
LeftUpLeg  -24.425 8.85582 -5.08608
LeftLeg  24.1507 6.18781 3.38875
LeftFoot  -7.71673 0.200446 -4.85205
LeftToes  3.81955e-011 1.3492e-010 1.36421e-011
38
root  72.4003 39.2707 -5.504 -76.845 -86.103 77.893
RightUpLeg  8.28346 -10.4274 -7.91131
RightLeg  10.722 -4.40424 2.62972
RightFoot  -19.1971 -0.0465138 1.21542
RightToes  5.82063e-011 0 -3.6325e-017
Spine  1.70859 -0.270215 5.71662
Spine1  12.7261 0.573647 -2.86918
HEad  1.97342 1.64476 -5.98457
LeftShoulder1  8.72388 -12.1211 -48.7379
LeftArm  -9.79686 12.7555 -28.9199
LeftForeArm  27.3115 -28.5991 -4.69544
LeftHand  -0.244104 0.0205437 5.32207
RightShoulder  6.52561 9.99739 42.0638
RightArm  0.850489 -6.3466 31.4633
RightForeArm  -8.9601 15.9743 7.23711
RightHand  -0.412199 -0.810117 -10.4313
LeftUpLeg  -25.9705 8.55593 -6.43615
LeftLeg  18.5064 3.07321 1.4344
LeftFoot  -6.07125 0.262205 -4.90685
LeftToes  3.81955e-011 1.3492e-010 1.36421e-011
39
root  71.5486 39.1174 -5.57762 -75.7682 -85.9069 77.0822
RightUpLeg  9.71897 -10.2236 -8.00207
RightLeg  10.1573 -4.9457 2.49404
RightFoot  -19.8829 -0.0488119 1.15241
RightToes  5.82063e-011 0 -3.6325e-017
Spine  2.42811 0.0785136 5.60214
Spine1  12.258 1.05643 -3.37309
HEad  0.917643 1.18716 -6.05119
LeftShoulder1  8.78122 -12.1719 -48.9003
LeftArm  -8.26944 13.3761 -29.9063
LeftForeArm  27.7491 -27.8296 -4.50069
LeftHand  -0.244104 0.0205437 5.32207
RightShoulder  6.70891 10.0849 43.027
RightArm  2.76675 -4.01251 32.641
RightForeArm  -9.20321 18.3025 6.43202
RightHand  -0.43049 -0.178729 -9.60745
LeftUpLeg  -26.9757 6.8139 -6.32912
LeftLeg  13.1936 2.21321 -0.0687669
LeftFoot  -4.56677 0.28975 -4.44776
LeftToes  3.81955e-011 1.3492e-010 1.36421e-011
40
root  70.5918 38.9218 -5.62814 -82.5172 -85.9618 83.8985
RightUpLeg  11.3588 -10.0857 -8.15356
RightLeg  9.8525 -4.78374 2.32868
RightFoot  -20.608 -0.0489322 1.11424
RightToes  5.82063e-011 0 -3.6325e-017
Spine  3.29095 0.600585 5.67933
Spine1  11.6589 1.80033 -4.06121
HEad  0.197605 0.97628 -6.18708
LeftShoulder1  8.92586 -12.3954 -49.0085
LeftArm  -6.68112 14.4118 -30.6472
LeftForeArm  24.6197 -25.7795 -4.20736
LeftHand  -0.244104 0.0205437 5.32207
RightShoulder  6.85656 10.2418 43.4985
RightArm  3.91209 -1.75067 33.8747
RightForeArm  -10.7922 20.4001 5.85472
RightHand  -0.558324 0.621403 -10.8431
LeftUpLeg  -27.5873 2.84015 -4.12161
LeftLeg  8.82558 5.98084 -1.65035
LeftFoot  -2.83607 0.276977 -3.49959
LeftToes  3.81955e-011 1.3492e-010 1.36421e-011
41
root  69.5069 38.6655 -5.63972 -92.0934 -86.0556 93.3575
RightUpLeg  13.3353 -10.1047 -8.61676
RightLeg  9.75173 -3.69975 2.34092
RightFoot  -21.556 0.0247093 1.89979
RightToes  5.82063e-011 0 -3.6325e-017
Spine  4.16164 1.11676 5.72116
Spine1  11.0798 2.52597 -4.65765
HEad  -0.209318 0.761334 -6.06302
LeftShoulder1  9.14011 -12.702 -49.2377
LeftArm  -5.20549 15.7399 -30.7987
LeftForeArm  20.0193 -23.0573 -3.96634
LeftHand  -0.244104 0.0205437 5.32207
RightShoulder  6.93496 10.4066 43.4732
RightArm  4.83268 0.499103 34.9502
RightForeArm  -11.8652 22.3406 5.58743
RightHand  -0.711611 1.08508 -12.8833
LeftUpLeg  -28.3937 1.31637 -2.83076
LeftLeg  6.62209 8.62505 -2.51804
LeftFoot  -1.47364 0.246816 -2.74766
LeftToes  3.81955e-011 1.3492e-010 1.36421e-011
42
root  68.2848 38.3547 -5.58203 -103.035 -86.1477 104.048
RightUpLeg  15.4811 -10.3579 -9.40856
RightLeg  10.1049 -1.83217 2.45616
RightFoot  -22.2579 0.158483 3.24149
RightToes  5.82063e-011 0 -3.6325e-017
Spine  4.75647 1.46891 5.99759
Spine1  10.9916 3.15113 -5.41609
HEad  -0.681901 0.663352 -5.76787
LeftShoulder1  9.30283 -12.9128 -49.4721
LeftArm  -4.61164 17.023 -30.421
LeftForeArm  18.4215 -20.2296 -4.12667
LeftHand  -0.244104 0.0205437 5.32207
RightShoulder  6.96692 10.5607 43.179
RightArm  5.51091 2.92996 35.7338
RightForeArm  -10.9932 24.0827 5.67137
RightHand  -0.757708 0.8451 -14.1982
LeftUpLeg  -29.1298 2.27324 -2.90529
LeftLeg  7.18261 9.37159 -2.30019
LeftFoot  -1.18361 0.210195 -2.27453
LeftToes  3.81955e-011 1.3492e-010 1.36421e-011
43
root  66.909 38.0506 -5.45061 -120.552 -85.9001 121.325
RightUpLeg  17.4119 -10.8237 -10.5855
RightLeg  11.1379 0.739268 2.39981
RightFoot  -22.1004 0.257636 4.32227
RightToes  5.82063e-011 0 -3.6325e-017
Spine  4.87291 1.80915 6.56169
Spine1  11.4839 3.92979 -6.59195
HEad  -1.65672 0.953938 -5.47624
LeftShoulder1  9.29561 -12.8929 -49.493
LeftArm  -5.02996 18.2844 -29.9261
LeftForeArm  21.2753 -17.5631 -4.57586
LeftHand  -0.244104 0.0205437 5.32207
RightShoulder  7.0095 10.7649 42.7994
RightArm  6.35761 5.21104 36.1802
RightForeArm  -9.06077 25.6931 5.96835
RightHand  -0.7318 0.492968 -14.4982
LeftUpLeg  -29.3942 4.7293 -3.8756
LeftLeg  9.57691 9.15896 -1.0699
LeftFoot  -0.625621 0.133155 -1.39454
LeftToes  3.81955e-011 1.3492e-010 1.36421e-011
44
root  65.3751 37.8091 -5.28402 -137.594 -84.7894 138.255
RightUpLeg  18.9466 -11.1328 -12.259
RightLeg  12.6954 3.87302 2.11676
RightFoot  -21.2107 0.383893 6.09711
RightToes  5.82063e-011 0 -3.6325e-017
Spine  4.78256 2.2973 6.52335
Spine1  11.726 4.79934 -7.63417
HEad  -2.73504 1.35493 -5.14363
LeftShoulder1  9.19034 -12.7185 -49.4583
LeftArm  -6.11224 19.9557 -29.394
LeftForeArm  25.7838 -14.7753 -5.08744
LeftHand  -0.244104 0.0205437 5.32207
RightShoulder  7.02914 10.9217 42.4295
RightArm  7.90604 6.53779 36.2391
RightForeArm  -7.04608 27.2128 6.22675
RightHand  -0.7604 0.803259 -14.3398
LeftUpLeg  -29.4374 8.24636 -5.62876
LeftLeg  12.8454 7.87053 0.582218
LeftFoot  1.91318 -0.0597739 0.370252
LeftToes  3.81955e-011 1.3492e-010 1.36421e-011
45
root  63.739 37.6409 -5.11837 -141.946 -83.5299 142.462
RightUpLeg  20.0081 -10.3263 -13.936
RightLeg  15.0324 5.95792 1.84354
RightFoot  -19.523 0.586051 10.1328
RightToes  5.82063e-011 0 -3.6325e-017
Spine  5.05015 2.70034 5.04823
Spine1  10.9561 5.16167 -7.71432
HEad  -3.24671 1.88404 -4.80998
LeftShoulder1  9.20662 -12.6489 -49.757
LeftArm  -7.53878 22.0073 -28.4737
LeftForeArm  28.5413 -11.2506 -5.57542
LeftHand  -0.244104 0.0205437 5.32207
RightShoulder  6.93101 10.8097 42.1463
RightArm  9.84453 6.48844 35.9948
RightForeArm  -5.30568 28.1818 6.37114
RightHand  -0.884723 1.73717 -14.5237
LeftUpLeg  -29.6578 11.4599 -7.83398
LeftLeg  16.9295 5.59001 1.97327
LeftFoot  4.86533 -0.38046 2.4811
LeftToes  3.81955e-011 1.3492e-010 1.36421e-011
46
root  62.0916 37.5881 -4.94871 -137.646 -83.1104 137.772
RightUpLeg  19.7587 -7.66534 -14.5335
RightLeg  19.795 4.47518 1.47385
RightFoot  -15.1745 0.376386 14.7434
RightToes  5.82063e-011 0 -3.6325e-017
Spine  5.77267 2.70576 2.75282
Spine1  9.60335 4.75539 -6.87915
HEad  -3.14174 2.50463 -4.65395
LeftShoulder1  9.40756 -12.8148 -50.3229
LeftArm  -8.07209 23.6141 -27.2587
LeftForeArm  28.2484 -7.10304 -5.72644
LeftHand  -0.244104 0.0205437 5.32207
RightShoulder  6.73696 10.4483 42.0202
RightArm  11.8006 5.4477 35.7311
RightForeArm  -5.33567 27.8166 6.2852
RightHand  -1.08051 2.71738 -15.6041
LeftUpLeg  -29.239 11.329 -8.73478
LeftLeg  21.349 5.3768 2.68712
LeftFoot  4.74693 -0.5985 4.05487
LeftToes  3.81955e-011 1.3492e-010 1.36421e-011
